<?xml version="1.0" standalone="no"?><!DOCTYPE svg PUBLIC "-//W3C//DTD SVG 1.1//EN" "http://www.w3.org/Graphics/SVG/1.1/DTD/svg11.dtd"><svg t="1526116666705" class="icon" style="" viewBox="0 0 1024 1024" version="1.1" xmlns="http://www.w3.org/2000/svg" p-id="6338" xmlns:xlink="http://www.w3.org/1999/xlink" width="200" height="200"><defs><style type="text/css"></style></defs><path d="M511.45022 0.599824C229.432842 0.599824 0.000059 229.832666 0.000059 511.550132s229.432783 510.850337 511.450161 510.850337 511.450161-229.232842 511.450161-510.850337C1022.900381 229.832666 793.467597 0.599824 511.45022 0.599824z m0 979.213121c-258.42429 0-468.762667-210.038465-468.762668-468.262813C42.687552 253.325783 253.02593 43.287318 511.45022 43.287318s468.762667 210.138436 468.762667 468.262814-210.338377 468.262814-468.762667 468.262813z m0 0" p-id="6339"></path><path d="M765.875681 227.233428L561.535546 431.373621c-14.595724-9.097335-31.590745-14.595724-50.085326-14.595724-18.394611 0-35.489603 5.498389-50.085327 14.595724l-94.17241-94.07244c-8.39754-8.297569-21.793615-8.297569-30.191155 0-8.39754 8.297569-8.39754 21.793615 0 30.191155l94.17241 94.07244c-9.097335 14.495753-14.595724 31.590745-14.595724 49.985356 0 52.284682 42.487552 94.772235 94.872206 94.772234 52.284682 0 94.872205-42.487552 94.872205-94.772234 0-18.394611-5.498389-35.489603-14.595724-49.985356l204.440106-204.240164c8.39754-8.297569 8.39754-21.793615 0-30.191155-8.49751-8.297569-21.893586-8.297569-30.291126 0.099971zM511.45022 563.634873c-28.791565 0-52.184712-23.393147-52.184712-52.084741 0-28.691594 23.393147-52.084741 52.184712-52.084741 28.791565 0 52.184712 23.393147 52.184711 52.084741 0 28.691594-23.393147 52.084741-52.184711 52.084741z m0 0" p-id="6340"></path></svg>