<?xml version="1.0" standalone="no"?><!DOCTYPE svg PUBLIC "-//W3C//DTD SVG 1.1//EN" "http://www.w3.org/Graphics/SVG/1.1/DTD/svg11.dtd"><svg t="1526116629118" class="icon" style="" viewBox="0 0 1024 1024" version="1.1" xmlns="http://www.w3.org/2000/svg" p-id="5050" xmlns:xlink="http://www.w3.org/1999/xlink" width="200" height="200"><defs><style type="text/css"></style></defs><path d="M984.064 312.32c-25.6-61.44-62.464-115.712-109.568-162.816S773.12 65.536 711.68 39.936C648.192 13.312 580.608 0 512 0S375.808 13.312 312.32 39.936c-61.44 25.6-115.712 62.464-162.816 109.568s-83.968 102.4-109.568 162.816C13.312 375.808 0 443.392 0 512s13.312 136.192 39.936 199.68c25.6 61.44 62.464 115.712 109.568 162.816s101.376 83.968 162.816 109.568c63.488 26.624 130.048 39.936 199.68 39.936s136.192-13.312 199.68-39.936c61.44-25.6 115.712-62.464 162.816-109.568s83.968-101.376 109.568-162.816c26.624-63.488 39.936-130.048 39.936-199.68s-13.312-136.192-39.936-199.68zM512 999.424C243.712 999.424 24.576 780.288 24.576 512S243.712 24.576 512 24.576 999.424 243.712 999.424 512 780.288 999.424 512 999.424z" p-id="5051"></path><path d="M823.296 595.968c0-1.024 0-1.024-1.024-2.048v-1.024L700.416 354.304l-1.024-1.024-3.072-3.072v1.024c-2.048-1.024-4.096-13.312-6.144-13.312H533.504L522.24 316.416c21.504-6.144 38.912-29.696 38.912-57.344 0-31.744-21.504-58.368-49.152-58.368-26.624 0-49.152 25.6-49.152 58.368 0 27.648 16.384 52.224 38.912 58.368l-12.288 20.48H332.8c-2.048 0-4.096 12.288-5.12 13.312-1.024 1.024-2.048 1.024-3.072 3.072 0 0-1.024 0-1.024 1.024L201.728 592.896c-3.072 5.12-2.048 11.264 2.048 15.36 2.048 3.072 58.368 63.488 129.024 63.488 62.464 0 113.664-48.128 125.952-60.416 5.12-1.024 9.216-6.144 9.216-12.288 0-5.12-3.072-10.24-7.168-12.288L355.328 389.12H491.52v296.96h-20.48c-30.72 0-30.72 30.72 0 30.72h20.48v20.48h-71.68v30.72h71.68v30.72h-92.16c-6.144 0-16.384 4.096-16.384 11.264 0 7.168 5.12 9.216 10.24 9.216h235.52c6.144 0 10.24-2.048 10.24-9.216S627.712 798.72 621.568 798.72H532.48v-30.72h71.68v-30.72h-71.68v-20.48h20.48c10.24 0 10.24-30.72 0-30.72h-20.48V389.12h135.168L561.152 592.896v1.024c0 1.024 0 1.024-1.024 2.048v10.24c0 1.024 1.024 2.048 1.024 2.048s0 1.024 1.024 1.024c2.048 3.072 58.368 63.488 129.024 63.488 70.656 0 126.976-60.416 129.024-63.488l1.024-1.024c0-1.024 1.024-2.048 1.024-2.048V604.16v-3.072-1.024-1.024c1.024-1.024 1.024-2.048 1.024-3.072zM421.888 583.68H243.712L327.68 387.072v1.024L421.888 583.68z m179.2 0l91.136-194.56 88.064 194.56H601.088z" p-id="5052"></path></svg>