<?xml version="1.0" standalone="no"?><!DOCTYPE svg PUBLIC "-//W3C//DTD SVG 1.1//EN" "http://www.w3.org/Graphics/SVG/1.1/DTD/svg11.dtd"><svg t="1526116507319" class="icon" style="" viewBox="0 0 1024 1024" version="1.1" xmlns="http://www.w3.org/2000/svg" p-id="2568" xmlns:xlink="http://www.w3.org/1999/xlink" width="200" height="200"><defs><style type="text/css"></style></defs><path d="M495.323429 180.842901h38.596923V25.498725a19.298462 19.298462 0 0 0-38.596923 0v155.344176zM562.839912 180.842901h38.596923V25.498725a19.298462 19.298462 0 0 0-38.596923 0v155.344176zM427.806945 180.842901h38.596923V25.498725a19.298462 19.298462 0 0 0-38.596923 0v155.344176zM533.920352 833.502242h-38.596923v162.377143a19.298462 19.298462 0 0 0 38.596923 0v-162.377143zM601.436835 833.502242h-38.596923v162.377143a19.298462 19.298462 0 1 0 38.596923 0v-162.377143zM466.403868 833.502242h-38.596923v162.377143a19.298462 19.298462 0 0 0 38.596923 0v-162.377143zM593.391121 214.601143h-157.538462c-37.134066 0-67.516484 30.382418-67.516483 67.516483v450.10989c0 37.134066 30.382418 67.516484 67.516483 67.516484h157.538462c37.134066 0 67.516484-30.382418 67.516483-67.516484v-450.10989c0-37.134066-30.382418-67.516484-67.516483-67.516483" p-id="2569" fill="#7dc5eb"></path></svg>