<?xml version="1.0" standalone="no"?><!DOCTYPE svg PUBLIC "-//W3C//DTD SVG 1.1//EN" "http://www.w3.org/Graphics/SVG/1.1/DTD/svg11.dtd"><svg t="1526116726435" class="icon" style="" viewBox="0 0 1024 1024" version="1.1" xmlns="http://www.w3.org/2000/svg" p-id="7261" xmlns:xlink="http://www.w3.org/1999/xlink" width="200" height="200"><defs><style type="text/css"></style></defs><path d="M968.798 553.612l-196.525-0.273c-10.598 2.84-21.49-3.447-24.325-14.041l-29.633-94.226-92.816 435.748c0 0-1.892 22.982-14.304 22.982-12.413 0-33.406 0.35-33.406 0.35-10.256 2.748-20.797-3.338-23.546-13.598L439.074 322.231l-87.308 410.592c-2.808 10.297-14.828 18.885-25.315 16.127l-30.892 0.42c-10.833 2.848-21.962-3.461-24.865-14.092l-58.229-181.666L55.203 553.612c-10.967 0-19.86-8.891-19.86-19.859l0-39.72c0-10.967 8.894-19.861 19.86-19.861l195.501-0.64c11.878-0.378 21.962 0.977 24.865 11.612l30.284 94.493 85.241-445.702c0 0 4.223-13.529 17.879-13.529 13.653 0 42.354-0.557 42.354-0.557 10.262-2.748 20.803 3.337 23.553 13.597L589.02 697.394l84.38-405.062c2.748-10.261 10.812-18.828 21.068-16.08l33.922-0.414c10.595-2.84 21.484 3.447 24.325 14.045l57.95 184.289 158.131 0c10.972 0 19.861 8.895 19.861 19.861l0 39.72C988.658 544.724 979.768 553.612 968.798 553.612z" p-id="7262"></path></svg>