<?xml version="1.0" standalone="no"?><!DOCTYPE svg PUBLIC "-//W3C//DTD SVG 1.1//EN" "http://www.w3.org/Graphics/SVG/1.1/DTD/svg11.dtd"><svg t="1525332400195" class="icon" style="" viewBox="0 0 1024 1024" version="1.1" xmlns="http://www.w3.org/2000/svg" p-id="1232" xmlns:xlink="http://www.w3.org/1999/xlink" width="200" height="200"><defs><style type="text/css"></style></defs><path d="M512 0C228.266667 0 0 228.266667 0 512s228.266667 512 512 512 512-228.266667 512-512S795.733333 0 512 0z m0 981.333333C253.866667 981.333333 42.666667 770.133333 42.666667 512S253.866667 42.666667 512 42.666667s469.333333 211.2 469.333333 469.333333-211.2 469.333333-469.333333 469.333333z" fill="#d4237a" p-id="1233"></path><path d="M761.6 554.666667H490.666667V279.466667c0-12.8-8.533333-23.466667-21.333334-23.466667s-21.333333 10.666667-21.333333 23.466667V576c0 4.266667 2.133333 6.4 4.266667 10.666667 4.266667 6.4 10.666667 10.666667 17.066666 10.666666H761.6c14.933333 0 27.733333-8.533333 27.733333-21.333333s-12.8-21.333333-27.733333-21.333333z" fill="#d4237a" p-id="1234"></path></svg>