<?xml version="1.0" encoding="UTF-8"?>
<svg width="176px" height="39px" viewBox="0 0 176 39" version="1.1" xmlns="http://www.w3.org/2000/svg" xmlns:xlink="http://www.w3.org/1999/xlink">
    <!-- Generator: Sketch 43 (38999) - http://www.bohemiancoding.com/sketch -->
    <title>Group 3</title>
    <desc>Created with Sketch.</desc>
    <defs></defs>
    <g id="Page-1" stroke="none" stroke-width="1" fill="none" fill-rule="evenodd">
        <g id="新首页-产品概论" transform="translate(-380.000000, -20.000000)">
            <g id="Group-3" transform="translate(380.000000, 20.000000)">
                <g id="Page-1" transform="translate(0.000000, 0.781076)">
                    <g id="Group-2">
                        <g id="Group-10">
                            <path d="M17.3484862,26.3995719 C17.3484862,17.4900485 24.3181313,10.2676551 32.9158651,10.2676551 C33.2433417,10.2676551 33.5675653,10.2816209 33.8900849,10.3021682 L33.8656093,10.2821024 L34.9990751,8.79065381 L33.4927445,7.79266262 C32.5284388,7.15360794 32.2465053,5.82589599 32.8630413,4.82662059 C33.4795773,3.82750571 34.7609807,3.53534809 35.7252864,4.17424224 L37.5758238,5.40050164 L39.3857752,3.01909593 C35.6329609,2.21004403 30.3992209,2.16573881 23.8845423,5.1088256 C21.7536204,6.07150103 22.8748484,6.38115601 21.4191729,5.49440945 C19.2473551,4.17135277 12.0994104,1.94999164 7.01360808,2.77076194 C0.647486716,3.7979689 0.0574400867,4.56913661 0.101434112,5.69570927 C0.181986553,7.76184159 0.0417943241,35.4840689 0.0417943241,35.4840689 C0.0417943241,35.4840689 0.594507995,37.7065537 2.43094874,36.696523 C6.07641141,34.6917117 14.2490762,33.8324151 20.2784264,36.5294153 C20.5598952,36.6554283 20.8204514,36.7637835 21.0655167,36.8597782 C18.7480849,34.0430255 17.3484862,30.3908946 17.3484862,26.3995719" id="Fill-1" fill="#257EDC"></path>
                            <path d="M38.1790686,23.1877964 C37.6545483,24.46719 36.4766238,25.1728631 35.5479471,24.7640029 C34.6194253,24.3551427 34.2916388,22.9868177 34.8161591,21.7072636 C35.3406794,20.4280305 36.518604,19.722197 37.4472807,20.1310571 C38.3759574,20.5399173 38.7035889,21.9084029 38.1790686,23.1877964" id="Fill-3" fill="#257EDC"></path>
                            <path d="M25.5229325,17.5173379 C24.9762602,18.4984739 23.9698194,18.9569366 23.2748997,18.5413344 C22.5801349,18.1255716 22.4600808,16.9930595 23.0065981,16.0119235 C23.5534253,15.0306271 24.5598661,14.5721643 25.2546309,14.9879271 C25.9495506,15.4036899 26.0696047,16.536202 25.5229325,17.5173379" id="Fill-5" fill="#257EDC"></path>
                            <path d="M29.4630467,20.6355267 L25.0001316,19.7105749 C24.7152548,19.6515013 24.4782447,19.9394852 24.5797098,20.2218507 L26.0914623,24.4321311 C26.3377669,25.1180594 27.0238568,25.5214617 27.718002,25.3864592 C28.984844,25.139891 30.7317476,24.3456075 30.5023281,21.8269519 C30.4487297,21.2365366 30.0241254,20.7519081 29.4630467,20.6355267" id="Fill-7" fill="#FF78B5"></path>
                            <path d="M41.143352,15.042827 L33.4070646,9.91706594 C33.0357488,9.67097932 32.9271579,9.15954295 33.1646327,8.77460119 L33.2456499,8.64345131 C33.4831247,8.25850956 33.9766633,8.14598071 34.347979,8.39206733 L42.0842664,13.5178284 C42.4557371,13.7639151 42.564328,14.275512 42.3268532,14.6602932 L42.245836,14.7916036 C42.0083613,15.1763848 41.5146677,15.2889137 41.143352,15.042827" id="Fill-9" fill="#257EDC"></path>
                            <path d="M17.5639021,30.7093304 C17.5749006,30.6576409 17.7682264,31.2608983 17.7933216,31.3072903 C19.0425041,33.6284987 19.5616026,39.3319935 28.8034461,34.2386587 C36.4247914,30.038331 42.5055712,33.4219016 42.5055712,33.4219016 L42.480476,34.181993 C42.4388056,35.439876 41.3316743,36.3368963 40.2019263,36.0237097 C38.0631041,35.4308866 34.7996459,34.6772162 32.451852,34.8220108 C29.7530354,34.9884765 26.8951278,35.2588025 24.1399245,36.5845882 C23.603786,36.8423932 22.7806021,37.3581638 22.2540679,37.3283059 C21.8153669,37.3035849 21.0958168,36.8423932 20.5214159,36.6043329 C17.2447905,35.246121 17.3363414,31.7760268 17.5639021,30.7093304" id="Fill-11" fill="#257EDC"></path>
                            <path d="M22.2202359,4.66912837 C22.2202359,4.66912837 13.4947026,-2.80304375 1.04253448,1.15809999 C0.449699492,1.34671824 0.0486412816,1.92043877 0.0486412816,2.56302503 L0.0486412816,3.49728733 C0.0486412816,3.49728733 9.96387221,-1.82399465 22.2202359,4.66912837" id="Fill-13" fill="#257EDC"></path>
                            <path d="M80.2276704,29.53 C80.2276704,30.2500036 80.1926708,30.8299978 80.1226704,31.27 C80.0526701,31.7100022 79.9026716,32.0549987 79.6726704,32.305 C79.4426693,32.5550012 79.1026727,32.7199996 78.6526704,32.8 C78.2026682,32.8800004 77.5976742,32.92 76.8376704,32.92 L59.5876704,32.92 C58.907667,32.92 58.4476716,32.815001 58.2076704,32.605 C57.9676692,32.3949989 57.8476704,32.0300026 57.8476704,31.51 C57.8476704,30.9899974 57.9776691,30.6350009 58.2376704,30.445 C58.4976717,30.254999 58.9476672,30.16 59.5876704,30.16 L76.3576704,30.16 C76.5576714,30.16 76.6876701,30.1000006 76.7476704,29.98 C76.8076707,29.8599994 76.8376704,29.700001 76.8376704,29.5 L76.8376704,28.15 L60.6076704,28.15 C60.1476681,28.15 59.7476721,28.045001 59.4076704,27.835 C59.0676687,27.6249989 58.8976704,27.2800024 58.8976704,26.8 C58.8976704,26.2799974 59.0326691,25.915001 59.3026704,25.705 C59.5726718,25.4949989 60.0076674,25.39 60.6076704,25.39 L76.8376704,25.39 L76.8376704,23.83 C76.8376704,23.5499986 76.8026708,23.3850002 76.7326704,23.335 C76.6626701,23.2849997 76.4376723,23.26 76.0576704,23.26 L59.9776704,23.26 C59.297667,23.26 58.8376716,23.160001 58.5976704,22.96 C58.3576692,22.759999 58.2376704,22.3700029 58.2376704,21.79 C58.2376704,21.2699974 58.3676691,20.9200009 58.6276704,20.74 C58.8876717,20.5599991 59.3376672,20.47 59.9776704,20.47 L76.7476704,20.47 C77.5076742,20.47 78.1176681,20.5049996 78.5776704,20.575 C79.0376727,20.6450003 79.3876692,20.7849989 79.6276704,20.995 C79.8676716,21.205001 80.02767,21.509998 80.1076704,21.91 C80.1876708,22.310002 80.2276704,22.8499966 80.2276704,23.53 L80.2276704,29.53 Z M70.5676704,17.56 C70.5676704,18.2200033 70.4476716,18.6999985 70.2076704,19 C69.9676692,19.3000015 69.5676732,19.45 69.0076704,19.45 C68.3876673,19.45 67.9776714,19.3000015 67.7776704,19 C67.5776694,18.6999985 67.4776704,18.2200033 67.4776704,17.56 L67.4776704,12.28 L59.3476704,12.28 C59.0876691,12.28 58.9576704,12.4099987 58.9576704,12.67 L58.9576704,15.97 C58.9576704,16.5900031 58.797672,17.0199988 58.4776704,17.26 C58.1576688,17.5000012 57.7776726,17.62 57.3376704,17.62 C56.2976652,17.62 55.7776704,17.0700055 55.7776704,15.97 L55.7776704,12.43 C55.7776704,11.6099959 55.9826684,10.9400026 56.3926704,10.42 C56.8026725,9.8999974 57.4776657,9.64 58.4176704,9.64 L67.4776704,9.64 L67.4776704,8.41 L59.9476704,8.41 C59.4076677,8.41 58.977672,8.3400007 58.6576704,8.2 C58.3376688,8.0599993 58.1776704,7.6700032 58.1776704,7.03 C58.1776704,6.4099969 58.3376688,6.00500095 58.6576704,5.815 C58.977672,5.62499905 59.4076677,5.53 59.9476704,5.53 L78.4576704,5.53 C79.0376733,5.53 79.4926688,5.6099992 79.8226704,5.77 C80.1526721,5.9300008 80.3176704,6.309997 80.3176704,6.91 C80.3176704,7.5700033 80.1526721,7.98499915 79.8226704,8.155 C79.4926688,8.32500085 79.0376733,8.41 78.4576704,8.41 L70.5676704,8.41 L70.5676704,9.64 L80.0476704,9.64 C80.9476749,9.64 81.637668,9.739999 82.1176704,9.94 C82.5976728,10.140001 82.9176696,10.6099963 83.0776704,11.35 C83.2176711,11.9900032 83.2076712,12.704996 83.0476704,13.495 C82.8876696,14.2850039 82.5376731,15.2299945 81.9976704,16.33 C81.6976689,16.9700032 81.3376725,17.3599993 80.9176704,17.5 C80.4976683,17.6400007 80.0576727,17.5200019 79.5976704,17.14 C79.1976684,16.8599986 78.9876705,16.5250019 78.9676704,16.135 C78.9476703,15.744998 79.0976688,15.2300032 79.4176704,14.59 C79.6576716,14.1099976 79.8126701,13.7250014 79.8826704,13.435 C79.9526708,13.1449985 80.0076702,12.8600014 80.0476704,12.58 C80.0676705,12.379999 79.9776714,12.28 79.7776704,12.28 L70.5676704,12.28 L70.5676704,17.56 Z M66.7876704,14.56 C66.7876704,15.3200038 66.2676756,15.7 65.2276704,15.7 L60.9076704,15.7 C60.3876678,15.7 60.0026717,15.5900011 59.7526704,15.37 C59.5026692,15.1499989 59.3776704,14.8700017 59.3776704,14.53 C59.3776704,14.0699977 59.5026692,13.7600008 59.7526704,13.6 C60.0026717,13.4399992 60.3876678,13.36 60.9076704,13.36 L65.2276704,13.36 C65.747673,13.36 66.1376691,13.4299993 66.3976704,13.57 C66.6576717,13.7100007 66.7876704,14.0399974 66.7876704,14.56 Z M78.4276704,14.62 C78.4276704,15.3800038 77.9076756,15.76 76.8676704,15.76 L72.5476704,15.76 C72.0276678,15.76 71.6426717,15.6500011 71.3926704,15.43 C71.1426692,15.2099989 71.0176704,14.9300017 71.0176704,14.59 C71.0176704,14.1299977 71.1426692,13.8100009 71.3926704,13.63 C71.6426717,13.4499991 72.0276678,13.36 72.5476704,13.36 L76.8676704,13.36 C77.387673,13.36 77.7776691,13.4399992 78.0376704,13.6 C78.2976717,13.7600008 78.4276704,14.0999974 78.4276704,14.62 Z M78.6676704,18.16 C78.6676704,18.9000037 78.1476756,19.27 77.1076704,19.27 L72.7876704,19.27 C71.7676653,19.27 71.2576704,18.9000037 71.2576704,18.16 C71.2576704,17.6999977 71.3826692,17.3800009 71.6326704,17.2 C71.8826717,17.0199991 72.2676678,16.93 72.7876704,16.93 L77.1076704,16.93 C77.627673,16.93 78.0176691,16.9999993 78.2776704,17.14 C78.5376717,17.2800007 78.6676704,17.6199973 78.6676704,18.16 Z M66.7876704,18.19 C66.7876704,18.9100036 66.2676756,19.27 65.2276704,19.27 L60.9076704,19.27 C59.8876653,19.27 59.3776704,18.9000037 59.3776704,18.16 C59.3776704,17.6999977 59.5026692,17.3800009 59.7526704,17.2 C60.0026717,17.0199991 60.3876678,16.93 60.9076704,16.93 L65.2276704,16.93 C65.747673,16.93 66.1376691,17.0049992 66.3976704,17.155 C66.6576717,17.3050007 66.7876704,17.6499973 66.7876704,18.19 Z M87.1794886,15.07 C86.4794851,15.07 86.0244897,14.9250014 85.8144886,14.635 C85.6044876,14.3449985 85.4994886,13.9100029 85.4994886,13.33 C85.4994886,12.7699972 85.6044876,12.3250016 85.8144886,11.995 C86.0244897,11.6649983 86.4794851,11.5 87.1794886,11.5 L89.1594886,11.5 L89.1594886,6.43 C89.1594886,5.7299965 89.2944873,5.2700011 89.5644886,5.05 C89.83449,4.8299989 90.2594857,4.72 90.8394886,4.72 C91.3594912,4.72 91.7744871,4.8299989 92.0844886,5.05 C92.3944902,5.2700011 92.5494886,5.7299965 92.5494886,6.43 L92.5494886,11.5 L94.1394886,11.5 C94.7994919,11.5 95.2494874,11.6649983 95.4894886,11.995 C95.7294898,12.3250016 95.8494886,12.7699972 95.8494886,13.33 C95.8494886,13.9100029 95.7294898,14.3449985 95.4894886,14.635 C95.2494874,14.9250014 94.7994919,15.07 94.1394886,15.07 L92.5494886,15.07 L92.5494886,23.98 C92.5694887,23.9599999 92.6194882,23.9200003 92.6994886,23.86 C92.779489,23.7999997 92.8694881,23.7350003 92.9694886,23.665 C93.0694891,23.5949996 93.1594882,23.5300003 93.2394886,23.47 C93.319489,23.4099997 93.3694885,23.3700001 93.3894886,23.35 C93.9094912,22.9099978 94.3744866,22.6550003 94.7844886,22.585 C95.1944907,22.5149996 95.6394862,22.7999968 96.1194886,23.44 C96.4594903,23.9000023 96.5994889,24.3649976 96.5394886,24.835 C96.4794883,25.3050023 96.1694914,25.7499979 95.6094886,26.17 C94.289482,27.1300048 93.0594943,28.004996 91.9194886,28.795 C90.7794829,29.5850039 89.6194945,30.2899969 88.4394886,30.91 C87.7594852,31.2500017 87.1944909,31.3850003 86.7444886,31.315 C86.2944864,31.2449996 85.92949,30.8500036 85.6494886,30.13 C85.4294875,29.5099969 85.4444874,29.0150018 85.6944886,28.645 C85.9444899,28.2749981 86.329486,27.9500014 86.8494886,27.67 C87.2694907,27.4499989 87.6794866,27.2500009 88.0794886,27.07 C88.4794906,26.8899991 88.839487,26.7200008 89.1594886,26.56 L89.1594886,15.07 L87.1794886,15.07 Z M97.6194886,13.48 L97.5894886,9.13 C97.5894886,8.6099974 97.7444871,8.1900016 98.0544886,7.87 C98.3644902,7.5499984 98.7594862,7.39 99.2394886,7.39 C100.359494,7.39 100.919489,7.9699942 100.919489,9.13 L100.919489,12.1 L103.409489,10.96 L103.409489,6.25 C103.409489,5.6699971 103.544487,5.2600012 103.814489,5.02 C104.08449,4.7799988 104.499486,4.66 105.059489,4.66 C105.519491,4.66 105.879487,4.7799988 106.139489,5.02 C106.39949,5.2600012 106.529489,5.6699971 106.529489,6.25 L106.529489,9.58 L108.269489,8.86 C109.049493,8.5399984 109.729486,8.34500035 110.309489,8.275 C110.889492,8.20499965 111.369487,8.2999987 111.749489,8.56 C112.129491,8.8200013 112.409488,9.2599969 112.589489,9.88 C112.76949,10.5000031 112.859489,11.3299948 112.859489,12.37 C112.859489,13.570006 112.849489,14.7349943 112.829489,15.865 C112.809489,16.9950056 112.779489,18.0999946 112.739489,19.18 C112.699488,20.2000051 112.624489,21.0749963 112.514489,21.805 C112.404488,22.5350036 112.23449,23.1299977 112.004489,23.59 C111.774487,24.0500023 111.47449,24.3849989 111.104489,24.595 C110.734487,24.805001 110.279491,24.91 109.739489,24.91 C109.399487,24.91 109.034491,24.8800003 108.644489,24.82 C108.254487,24.7599997 107.799491,24.6500008 107.279489,24.49 C106.959487,24.3899995 106.70949,24.240001 106.529489,24.04 L106.529489,25.6 C106.529489,26.1800029 106.38949,26.5949987 106.109489,26.845 C105.829487,27.0950012 105.459491,27.22 104.999489,27.22 C104.439486,27.22 104.03449,27.0950012 103.784489,26.845 C103.534487,26.5949987 103.409489,26.1800029 103.409489,25.6 L103.409489,14.62 L100.919489,15.82 L100.919489,26.62 C100.919489,27.1400026 100.944488,27.5799982 100.994489,27.94 C101.044489,28.3000018 101.174488,28.5899989 101.384489,28.81 C101.59449,29.0300011 101.894487,29.1899995 102.284489,29.29 C102.674491,29.3900005 103.219485,29.44 103.919489,29.44 L107.969489,29.44 C108.589492,29.44 109.099487,29.4050003 109.499489,29.335 C109.899491,29.2649996 110.214487,29.1350009 110.444489,28.945 C110.67449,28.754999 110.834488,28.4850017 110.924489,28.135 C111.014489,27.7849982 111.059489,27.3300028 111.059489,26.77 C111.059489,26.1299968 111.174487,25.6800013 111.404489,25.42 C111.63449,25.1599987 112.009486,25.03 112.529489,25.03 C113.109492,25.03 113.549487,25.1649986 113.849489,25.435 C114.14949,25.7050013 114.299489,26.1599968 114.299489,26.8 C114.299489,28.000006 114.19449,28.9799962 113.984489,29.74 C113.774488,30.5000038 113.419491,31.0949978 112.919489,31.525 C112.419486,31.9550021 111.764493,32.2499992 110.954489,32.41 C110.144485,32.5700008 109.129495,32.65 107.909489,32.65 L103.499489,32.65 C102.299483,32.65 101.319492,32.5600009 100.559489,32.38 C99.7994848,32.1999991 99.2044908,31.8900022 98.7744886,31.45 C98.3444865,31.0099978 98.0444895,30.4150037 97.8744886,29.665 C97.7044878,28.9149962 97.6194886,27.9600058 97.6194886,26.8 L97.6194886,17.2 C96.8394847,17.600002 96.2994901,17.7300007 95.9994886,17.59 C95.6994871,17.4499993 95.4594895,17.1200026 95.2794886,16.6 C95.0594875,16.0799974 95.0344878,15.6100021 95.2044886,15.19 C95.3744895,14.7699979 95.7394858,14.4500011 96.2994886,14.23 L97.6194886,13.48 Z M106.529489,13.21 L106.529489,21.61 C106.72949,21.3299986 106.954487,21.1700002 107.204489,21.13 C107.45449,21.0899998 107.719487,21.1399993 107.999489,21.28 C108.23949,21.4000006 108.444488,21.4699999 108.614489,21.49 C108.784489,21.5100001 108.934488,21.4500007 109.064489,21.31 C109.194489,21.1699993 109.294488,20.9400016 109.364489,20.62 C109.434489,20.2999984 109.489488,19.8500029 109.529489,19.27 C109.609489,18.1499944 109.659489,17.1000049 109.679489,16.12 C109.699489,15.1399951 109.689489,14.0400061 109.649489,12.82 C109.609488,12.419998 109.539489,12.1800004 109.439489,12.1 C109.339488,12.0199996 109.14949,12.0399994 108.869489,12.16 L106.529489,13.21 Z M129.081307,11.89 C129.381308,12.3100021 129.561307,12.6899983 129.621307,13.03 L131.451307,13.03 C131.751308,12.5699977 131.996306,12.1750016 132.186307,11.845 C132.376308,11.5149983 132.601306,11.1000025 132.861307,10.6 C133.181308,9.9599968 133.496305,9.59500045 133.806307,9.505 C134.116308,9.41499955 134.531304,9.4499992 135.051307,9.61 C135.571309,9.7900009 135.866306,10.074998 135.936307,10.465 C136.006307,10.8550019 135.871309,11.3299972 135.531307,11.89 C135.411306,12.090001 135.286307,12.284999 135.156307,12.475 C135.026306,12.6650009 134.901307,12.8499991 134.781307,13.03 L135.051307,13.03 C135.67131,13.03 136.181305,13.0699996 136.581307,13.15 C136.981309,13.2300004 137.301306,13.3749989 137.541307,13.585 C137.781308,13.795001 137.946306,14.0899981 138.036307,14.47 C138.126307,14.8500019 138.171307,15.3499969 138.171307,15.97 L138.171307,19.72 C138.171307,20.320003 138.131307,20.8099981 138.051307,21.19 C137.971306,21.5700019 137.816308,21.8699989 137.586307,22.09 C137.356306,22.3100011 137.036309,22.4649995 136.626307,22.555 C136.216305,22.6450004 135.69131,22.69 135.051307,22.69 L134.091307,22.69 L134.091307,25.69 C134.091307,26.0700019 134.191306,26.3099995 134.391307,26.41 C134.591308,26.5100005 135.031303,26.56 135.711307,26.56 C136.25131,26.56 136.611306,26.4400012 136.791307,26.2 C136.971308,25.9599988 137.061307,25.5000034 137.061307,24.82 C137.061307,24.2999974 137.196305,23.9300011 137.466307,23.71 C137.736308,23.4899989 138.101305,23.38 138.561307,23.38 C139.521312,23.38 140.001307,23.8999948 140.001307,24.94 C140.001307,25.9000048 139.956307,26.674997 139.866307,27.265 C139.776306,27.8550029 139.581308,28.3099984 139.281307,28.63 C138.981305,28.9500016 138.54631,29.1649994 137.976307,29.275 C137.406304,29.3850005 136.641312,29.44 135.681307,29.44 C134.721302,29.44 133.94631,29.3850005 133.356307,29.275 C132.766304,29.1649994 132.306308,28.9750013 131.976307,28.705 C131.646305,28.4349986 131.426307,28.0700023 131.316307,27.61 C131.206306,27.1499977 131.151307,26.5600036 131.151307,25.84 L131.151307,22.69 L129.351307,22.69 C129.251306,23.690005 129.081308,24.5749961 128.841307,25.345 C128.601306,26.1150038 128.246309,26.8149968 127.776307,27.445 C127.306304,28.0750031 126.70631,28.6499974 125.976307,29.17 C125.246303,29.6900026 124.351312,30.1999975 123.291307,30.7 C122.691304,30.9800014 122.211309,31.0900003 121.851307,31.03 C121.491305,30.9699997 121.201308,30.6600028 120.981307,30.1 C120.821306,29.6799979 120.801306,29.2600021 120.921307,28.84 C121.041307,28.4199979 121.421304,28.0700014 122.061307,27.79 C122.76131,27.4899985 123.356304,27.1800016 123.846307,26.86 C124.336309,26.5399984 124.746305,26.180002 125.076307,25.78 C125.406308,25.379998 125.671306,24.9300025 125.871307,24.43 C126.071308,23.9299975 126.231306,23.3500033 126.351307,22.69 L125.781307,22.69 C125.181304,22.69 124.686309,22.6500004 124.296307,22.57 C123.906305,22.4899996 123.596308,22.345001 123.366307,22.135 C123.136306,21.9249989 122.971307,21.6250019 122.871307,21.235 C122.771306,20.844998 122.721307,20.3400031 122.721307,19.72 L122.721307,15.97 C122.721307,15.3499969 122.771306,14.8450019 122.871307,14.455 C122.971307,14.064998 123.136306,13.765001 123.366307,13.555 C123.596308,13.3449989 123.906305,13.2050003 124.296307,13.135 C124.686309,13.0649996 125.181304,13.03 125.781307,13.03 L126.321307,13.03 C126.161306,12.8099989 126.011308,12.6200008 125.871307,12.46 C125.731306,12.2999992 125.561308,12.1100011 125.361307,11.89 C124.961305,11.4699979 124.766307,11.0650019 124.776307,10.675 C124.786307,10.284998 124.931305,9.9600013 125.211307,9.7 C125.651309,9.299998 126.056305,9.12499975 126.426307,9.175 C126.796309,9.22500025 127.181305,9.4799977 127.581307,9.94 C127.921309,10.340002 128.191306,10.6749986 128.391307,10.945 C128.591308,11.2150013 128.821306,11.5299982 129.081307,11.89 Z M144.291307,29.89 C144.291307,32.2100116 143.161318,33.37 140.901307,33.37 C140.621305,33.37 140.311309,33.3600001 139.971307,33.34 C139.631305,33.3199999 139.281309,33.2900002 138.921307,33.25 C138.561305,33.2099998 138.211309,33.1650002 137.871307,33.115 C137.531305,33.0649997 137.231308,33.0100003 136.971307,32.95 C136.411304,32.8299994 135.981308,32.6100016 135.681307,32.29 C135.381305,31.9699984 135.341306,31.4700034 135.561307,30.79 C135.761308,30.1499968 136.061305,29.7800005 136.461307,29.68 C136.861309,29.5799995 137.381304,29.6199991 138.021307,29.8 C138.521309,29.9400007 138.881306,30.0199999 139.101307,30.04 C139.321308,30.0600001 139.551306,30.0799999 139.791307,30.1 C140.211309,30.1200001 140.476306,30.0600007 140.586307,29.92 C140.696307,29.7799993 140.751307,29.5000021 140.751307,29.08 L140.751307,10.09 C140.751307,9.7699984 140.686307,9.54500065 140.556307,9.415 C140.426306,9.28499935 140.161309,9.22 139.761307,9.22 L128.691307,9.22 C127.931303,9.22 127.411308,9.07500145 127.131307,8.785 C126.851305,8.49499855 126.711307,8.050003 126.711307,7.45 C126.711307,6.6899962 126.851305,6.19500115 127.131307,5.965 C127.411308,5.73499885 127.931303,5.62 128.691307,5.62 L141.081307,5.62 C141.68131,5.62 142.186305,5.66499955 142.596307,5.755 C143.006309,5.84500045 143.336306,6.0099988 143.586307,6.25 C143.836308,6.4900012 144.016306,6.8199979 144.126307,7.24 C144.236307,7.6600021 144.291307,8.1999967 144.291307,8.86 L144.291307,29.89 Z M120.651307,31.6 C120.651307,32.2400032 120.496308,32.6949986 120.186307,32.965 C119.876305,33.2350013 119.44131,33.37 118.881307,33.37 C118.361304,33.37 117.936308,33.2350013 117.606307,32.965 C117.276305,32.6949986 117.111307,32.2400032 117.111307,31.6 L117.111307,11.74 C117.111307,11.0999968 117.276305,10.6450013 117.606307,10.375 C117.936308,10.1049986 118.361304,9.97 118.881307,9.97 C119.44131,9.97 119.876305,10.1049986 120.186307,10.375 C120.496308,10.6450013 120.651307,11.0999968 120.651307,11.74 L120.651307,31.6 Z M134.991307,16.24 C134.991307,15.9999988 134.871308,15.88 134.631307,15.88 L126.231307,15.88 C125.991306,15.88 125.871307,15.9899989 125.871307,16.21 L125.871307,19.48 C125.871307,19.7000011 125.991306,19.81 126.231307,19.81 L134.631307,19.81 C134.771308,19.81 134.866307,19.7900002 134.916307,19.75 C134.966307,19.7099998 134.991307,19.6100008 134.991307,19.45 L134.991307,16.24 Z M124.641307,8.95 C124.161304,9.9700051 123.231314,10.1000038 121.851307,9.34 C121.371304,9.0599986 120.916309,8.820001 120.486307,8.62 C120.056305,8.419999 119.57131,8.2100011 119.031307,7.99 C118.271303,7.7099986 117.811308,7.3600021 117.651307,6.94 C117.491306,6.5199979 117.551305,6.0500026 117.831307,5.53 C118.131308,4.9499971 118.491305,4.6100005 118.911307,4.51 C119.331309,4.4099995 119.921303,4.5099985 120.681307,4.81 C121.021309,4.9700008 121.321306,5.1099994 121.581307,5.23 C121.841308,5.3500006 122.091306,5.46499945 122.331307,5.575 C122.571308,5.68500055 122.816306,5.80499935 123.066307,5.935 C123.316308,6.06500065 123.601305,6.2199991 123.921307,6.4 C124.50131,6.7000015 124.836306,7.049998 124.926307,7.45 C125.016307,7.850002 124.921308,8.349997 124.641307,8.95 Z M164.353125,7.03 L164.353125,6.01 C164.353125,5.3699968 164.488124,4.9400011 164.758125,4.72 C165.028126,4.4999989 165.453122,4.39 166.033125,4.39 C166.573128,4.39 166.968124,4.4999989 167.218125,4.72 C167.468126,4.9400011 167.593125,5.3699968 167.593125,6.01 L167.593125,7.03 L172.543125,7.03 C173.123128,7.03 173.523124,7.1499988 173.743125,7.39 C173.963126,7.6300012 174.073125,8.0199973 174.073125,8.56 C174.073125,9.0800026 173.963126,9.439999 173.743125,9.64 C173.523124,9.840001 173.123128,9.94 172.543125,9.94 L167.593125,9.94 L167.593125,11.74 L172.663125,11.74 C173.62313,11.74 174.323123,11.8999984 174.763125,12.22 C175.203127,12.5400016 175.423125,13.1599954 175.423125,14.08 C175.423125,14.480002 175.378125,14.9249975 175.288125,15.415 C175.198125,15.9050024 175.063126,16.4799967 174.883125,17.14 C174.743124,17.6400025 174.588126,18.0299986 174.418125,18.31 C174.248124,18.5900014 174.063126,18.7949993 173.863125,18.925 C173.663124,19.0550006 173.448126,19.1100001 173.218125,19.09 C172.988124,19.0699999 172.743126,19.0100005 172.483125,18.91 C172.263124,18.8299996 172.063126,18.7400005 171.883125,18.64 C171.703124,18.5399995 171.568125,18.4000009 171.478125,18.22 C171.388125,18.0399991 171.353125,17.8200013 171.373125,17.56 C171.393125,17.2999987 171.483124,16.970002 171.643125,16.57 C171.723125,16.3499989 171.783125,16.1750006 171.823125,16.045 C171.863125,15.9149993 171.893125,15.8050004 171.913125,15.715 C171.933125,15.6249995 171.953125,15.5450003 171.973125,15.475 C171.993125,15.4049996 172.023125,15.3100006 172.063125,15.19 L171.973125,14.92 C171.853124,14.7599992 171.713126,14.68 171.553125,14.68 L162.523125,14.68 C162.983127,14.9600014 163.408123,15.2199988 163.798125,15.46 C164.188127,15.7000012 164.453124,15.8699995 164.593125,15.97 C164.813126,16.1300008 164.973124,16.304999 165.073125,16.495 C165.173125,16.6850009 165.223125,16.879999 165.223125,17.08 C165.223125,17.280001 165.188125,17.4699991 165.118125,17.65 C165.048125,17.8300009 164.963125,17.9799994 164.863125,18.1 C164.463123,18.5600023 164.038127,18.7650002 163.588125,18.715 C163.138123,18.6649997 162.713127,18.4900015 162.313125,18.19 C162.053124,18.0099991 161.828126,17.8500007 161.638125,17.71 C161.448124,17.5699993 161.263126,17.4350006 161.083125,17.305 C160.903124,17.1749993 160.713126,17.0400007 160.513125,16.9 C160.313124,16.7599993 160.063126,16.590001 159.763125,16.39 C159.463123,16.189999 159.238126,15.9500014 159.088125,15.67 C158.938124,15.3899986 158.973124,15.0600019 159.193125,14.68 L157.393125,14.68 C156.853122,14.68 156.463126,14.575001 156.223125,14.365 C155.983124,14.1549989 155.863125,13.7800027 155.863125,13.24 C155.863125,12.7199974 155.973124,12.3400012 156.193125,12.1 C156.413126,11.8599988 156.813122,11.74 157.393125,11.74 L164.353125,11.74 L164.353125,9.94 L159.103125,9.94 C158.543122,9.94 158.143126,9.840001 157.903125,9.64 C157.663124,9.439999 157.543125,9.0800026 157.543125,8.56 C157.543125,8.0199973 157.663124,7.6300012 157.903125,7.39 C158.143126,7.1499988 158.543122,7.03 159.103125,7.03 L164.353125,7.03 Z M157.153125,25.33 C156.553122,25.33 156.153126,25.1950013 155.953125,24.925 C155.753124,24.6549986 155.653125,24.2900023 155.653125,23.83 C155.653125,23.3299975 155.753124,22.9450013 155.953125,22.675 C156.153126,22.4049986 156.553122,22.27 157.153125,22.27 L160.753125,22.27 C160.413123,22.0299988 160.013127,21.7600015 159.553125,21.46 C159.093123,21.1599985 158.423129,20.7300028 157.543125,20.17 C157.083123,19.9099987 156.798126,19.6300015 156.688125,19.33 C156.578124,19.0299985 156.633124,18.6300025 156.853125,18.13 C157.013126,17.8299985 157.288123,17.580001 157.678125,17.38 C158.068127,17.179999 158.563122,17.2199986 159.163125,17.5 C159.863128,17.8400017 160.483122,18.1949981 161.023125,18.565 C161.563128,18.9350018 162.123122,19.319998 162.703125,19.72 C163.183127,20.0200015 163.508124,20.3749979 163.678125,20.785 C163.848126,21.195002 163.733127,21.6299977 163.333125,22.09 C163.293125,22.1300002 163.263125,22.1649998 163.243125,22.195 C163.223125,22.2250001 163.203125,22.2499999 163.183125,22.27 L165.613125,22.27 C165.773126,21.5699965 165.888125,20.7650045 165.958125,19.855 C166.028125,18.9449954 166.083125,17.890006 166.123125,16.69 C166.183125,15.489994 166.793119,14.9499994 167.953125,15.07 C168.413127,15.0900001 168.778124,15.2449985 169.048125,15.535 C169.318126,15.8250014 169.453125,16.3299964 169.453125,17.05 C169.393125,19.1100103 169.233126,20.8499929 168.973125,22.27 L174.073125,22.27 C174.633128,22.27 175.023124,22.4049986 175.243125,22.675 C175.463126,22.9450013 175.573125,23.3299975 175.573125,23.83 C175.573125,24.2900023 175.463126,24.6549986 175.243125,24.925 C175.023124,25.1950013 174.633128,25.33 174.073125,25.33 L168.073125,25.33 C167.673123,26.2900048 167.188128,27.1299964 166.618125,27.85 C166.048122,28.5700036 165.368129,29.224997 164.578125,29.815 C163.788121,30.4050029 162.88313,30.9499975 161.863125,31.45 C160.84312,31.9500025 159.693131,32.4699973 158.413125,33.01 C157.833122,33.2500012 157.363127,33.3500002 157.003125,33.31 C156.643123,33.2699998 156.323126,33.0000025 156.043125,32.5 C155.763124,32.0399977 155.698124,31.5800023 155.848125,31.12 C155.998126,30.6599977 156.373122,30.2900014 156.973125,30.01 C157.93313,29.5499977 158.793121,29.1300019 159.553125,28.75 C160.313129,28.3699981 160.993122,28.0000018 161.593125,27.64 C162.193128,27.2799982 162.718123,26.9150018 163.168125,26.545 C163.618127,26.1749981 164.013123,25.7700022 164.353125,25.33 L157.153125,25.33 Z M156.523125,26.05 C156.903127,26.5100023 157.093125,26.9799976 157.093125,27.46 C157.093125,27.9400024 156.893127,28.3999978 156.493125,28.84 C155.853122,29.5800037 155.278128,30.1899976 154.768125,30.67 C154.258122,31.1500024 153.683128,31.6499974 153.043125,32.17 C152.623123,32.5100017 152.198127,32.7349994 151.768125,32.845 C151.338123,32.9550005 150.953127,32.9200009 150.613125,32.74 C150.273123,32.5599991 150.008126,32.2200025 149.818125,31.72 C149.628124,31.2199975 149.573125,30.5200045 149.653125,29.62 L150.643125,17.5 C150.663125,17.2799989 150.628125,17.1000007 150.538125,16.96 C150.448125,16.8199993 150.323126,16.7599999 150.163125,16.78 L148.513125,16.93 C147.873122,16.9900003 147.433126,16.9050011 147.193125,16.675 C146.953124,16.4449988 146.833125,15.9500038 146.833125,15.19 C146.833125,14.5699969 146.938124,14.1250013 147.148125,13.855 C147.358126,13.5849986 147.753122,13.4300002 148.333125,13.39 L151.183125,13.18 C152.16313,13.0999996 152.923122,13.2849977 153.463125,13.735 C154.003128,14.1850022 154.223125,15.009994 154.123125,16.21 L153.253125,26.53 C153.233125,26.9100019 153.273124,27.1049999 153.373125,27.115 C153.473125,27.125 153.683123,26.9200021 154.003125,26.5 C154.483127,25.8399967 154.923123,25.4850002 155.323125,25.435 C155.723127,25.3849997 156.123123,25.5899977 156.523125,26.05 Z M175.423125,32.44 C175.083123,32.9200024 174.688127,33.16 174.238125,33.16 C173.788123,33.16 173.333127,32.9800018 172.873125,32.62 C172.313122,32.1199975 171.818127,31.6850018 171.388125,31.315 C170.958123,30.9449981 170.573127,30.6200014 170.233125,30.34 C169.893123,30.0599986 169.578126,29.8050011 169.288125,29.575 C168.998124,29.3449988 168.723126,29.130001 168.463125,28.93 C167.54312,28.2499966 167.363122,27.4900042 167.923125,26.65 C168.143126,26.3099983 168.438123,26.0950004 168.808125,26.005 C169.178127,25.9149995 169.563123,25.9899988 169.963125,26.23 C170.523128,26.5700017 171.008123,26.8749986 171.418125,27.145 C171.828127,27.4150013 172.223123,27.6899986 172.603125,27.97 C172.983127,28.2500014 173.363123,28.5649982 173.743125,28.915 C174.123127,29.2650017 174.553123,29.6799976 175.033125,30.16 C175.313126,30.4400014 175.528124,30.7849979 175.678125,31.195 C175.828126,31.605002 175.733127,32.0299978 175.393125,32.47 L175.423125,32.44 Z M153.463125,8.47 C154.38313,9.5700055 154.393129,10.5599956 153.493125,11.44 C153.053123,11.8800022 152.608127,12.0700003 152.158125,12.01 C151.708123,11.9499997 151.233127,11.6000032 150.733125,10.96 C150.513124,10.6799986 150.313126,10.435001 150.133125,10.225 L149.593125,9.595 C149.413124,9.38499895 149.218126,9.1700011 149.008125,8.95 C148.798124,8.7299989 148.553126,8.4700015 148.273125,8.17 C147.813123,7.6699975 147.558125,7.21500205 147.508125,6.805 C147.458125,6.39499795 147.633123,5.9500024 148.033125,5.47 C148.373127,5.0499979 148.788123,4.83500005 149.278125,4.825 C149.768127,4.81499995 150.273122,5.0499976 150.793125,5.53 C151.173127,5.8900018 151.588123,6.32499745 152.038125,6.835 C152.488127,7.34500255 152.963122,7.8899971 153.463125,8.47 Z" id="雪地阅读" fill="#257EDC"></path>
                        </g>
                    </g>
                </g>
            </g>
        </g>
    </g>
</svg>