<?xml version="1.0" standalone="no"?><!DOCTYPE svg PUBLIC "-//W3C//DTD SVG 1.1//EN" "http://www.w3.org/Graphics/SVG/1.1/DTD/svg11.dtd"><svg t="1517283988679" class="icon" style="" viewBox="0 0 1024 1024" version="1.1" xmlns="http://www.w3.org/2000/svg" p-id="3483" xmlns:xlink="http://www.w3.org/1999/xlink" width="200" height="200"><defs><style type="text/css"></style></defs><path d="M512 0C229.2224 0 0 229.2224 0 512s229.2224 512 512 512 512-229.2224 512-512S794.7776 0 512 0z m244.667733 422.0416l-263.68 263.662933c-6.656 6.673067-15.394133 10.001067-24.132266 10.001067s-17.4592-3.328-24.132267-10.001067l-143.240533-143.240533c-12.032-12.032-14.984533-31.402667-5.0688-45.2096a34.133333 34.133333 0 0 1 51.985066-4.386133l96.3072 96.3072a34.133333 34.133333 0 0 0 48.264534 0l216.746666-216.7296a34.133333 34.133333 0 0 1 51.985067 4.386133c9.949867 13.806933 6.980267 33.1776-5.034667 45.2096z" fill="#1afa29" p-id="3484"></path></svg>